HIERARCHY
ROOT Hips
{
	OFFSET 0.00000 0.00000 0.00000
	CHANNELS 6 Xposition Yposition Zposition Zrotation Yrotation Xrotation 
	JOINT LHipJoint
	{
		OFFSET 0 0 0
		CHANNELS 3 Zrotation Yrotation Xrotation
		JOINT LeftHip
		{
			OFFSET 1.57338 -1.94743 0.52196
			CHANNELS 3 Zrotation Yrotation Xrotation
			JOINT LeftKnee
			{
				OFFSET 2.60333 -7.15259 0.00000
				CHANNELS 3 Zrotation Yrotation Xrotation
				JOINT LeftAnkle
				{
					OFFSET 2.77855 -7.63400 0.00000
					CHANNELS 3 Zrotation Yrotation Xrotation
					JOINT LeftToe
					{
						OFFSET 0.19847 -0.54529 2.28466
						CHANNELS 3 Zrotation Yrotation Xrotation
						End Site
						{
							OFFSET 0.00000 -0.00000 1.17993
						}
					}
				}
			}
		}
	}
	JOINT RHipJoint
	{
		OFFSET 0 0 0
		CHANNELS 3 Zrotation Yrotation Xrotation
		JOINT RightHip
		{
			OFFSET -1.61527 -1.94743 0.52196
			CHANNELS 3 Zrotation Yrotation Xrotation
			JOINT RightKnee
			{
				OFFSET -2.53829 -6.97390 0.00000
				CHANNELS 3 Zrotation Yrotation Xrotation
				JOINT RightAnkle
				{
					OFFSET -2.80762 -7.71387 0.00000
					CHANNELS 3 Zrotation Yrotation Xrotation
					JOINT RightToe
					{
						OFFSET -0.30536 -0.83898 2.28801
						CHANNELS 3 Zrotation Yrotation Xrotation
						End Site
						{
							OFFSET -0.00000 -0.00000 1.21323
						}
					}
				}
			}
		}
	}
	JOINT lowerback
	{
		OFFSET 0 0 0
		CHANNELS 3 Zrotation Yrotation Xrotation
		JOINT Chest
		{
			OFFSET -0.04381 1.99497 -0.19778
			CHANNELS 3 Zrotation Yrotation Xrotation
			JOINT Chest2
			{
				OFFSET -0.01959 2.01295 -0.04372
				CHANNELS 3 Zrotation Yrotation Xrotation
				JOINT lowerneck
				{
					OFFSET 0 0 0
					CHANNELS 3 Zrotation Yrotation Xrotation
					JOINT Neck
					{
						OFFSET -0.05459 1.76913 0.09708
						CHANNELS 3 Zrotation Yrotation Xrotation
						JOINT Head
						{
							OFFSET 0.09461 1.77368 -0.11172
							CHANNELS 3 Zrotation Yrotation Xrotation
							End Site
							{
								OFFSET 0.03812 1.78157 -0.04834
							}
						}
					}
				}
				JOINT LeftCollar
				{
					OFFSET 0 0 0
					CHANNELS 3 Zrotation Yrotation Xrotation
					JOINT LeftShoulder
					{
						OFFSET 3.50922 1.24034 -0.28866
CHANNELS 3 Zrotation Xrotation Yrotation
						JOINT LeftElbow
						{
OFFSET 0 -5.401880 0.000000
CHANNELS 3 Zrotation Xrotation Yrotation
							JOINT LeftWrist
							{
OFFSET 0 -3.685590 0.000000
CHANNELS 3 Zrotation Xrotation Yrotation
								JOINT lhand
								{
									OFFSET 0 0 0
CHANNELS 3 Zrotation Xrotation Yrotation
									JOINT LFingers
									{
OFFSET 0 -0.617530 0.000000
CHANNELS 3 Zrotation Xrotation Yrotation
										End Site
										{
OFFSET 0 -0.497870 0.000000
										}
									}
								}
								JOINT LThumb
								{
OFFSET 0 0.000000 0.000000
CHANNELS 3 Zrotation Xrotation Yrotation
									End Site
									{
OFFSET 0 -0.505470 0.505470
									}
								}
							}
						}
					}
				}
				JOINT RightCollar
				{
					OFFSET 0 0 0
					CHANNELS 3 Zrotation Yrotation Xrotation
					JOINT RightShoulder
					{
						OFFSET -2.95373 1.39649 -0.27346
CHANNELS 3 Zrotation Xrotation Yrotation
						JOINT RightElbow
						{
OFFSET 0 -6.106700 -0.000000
CHANNELS 3 Zrotation Xrotation Yrotation
							JOINT RightWrist
							{
OFFSET 0 -3.630520 0.000000
CHANNELS 3 Zrotation Xrotation Yrotation
								JOINT rhand
								{
									OFFSET 0 0 0
CHANNELS 3 Zrotation Xrotation Yrotation
									JOINT RFingers
									{
OFFSET 0 -0.583850 0.000000
CHANNELS 3 Zrotation Xrotation Yrotation
										End Site
										{
OFFSET 0 -0.470710 0.000000
										}
									}
								}
								JOINT RThumb
								{
OFFSET 0 0.000000 0.000000
CHANNELS 3 Zrotation Xrotation Yrotation
									End Site
									{
OFFSET 0 -0.477900 0.477900
									}
								}
							}
						}
					}
				}
			}
		}
	}
}
MOTION
Frames: 7
Frame Time: 0.008333333333333333
-2.649941 17.874208 3.243014 -173.621539 135.098679 -177.563294 0.000000 0.000000 0.000000 -9.082966 3.610495 -6.769909 6.701348 15.075130 47.735569 0.035831 -6.035349 -5.156305 1.068042 -6.570115 -18.447803 0.000000 0.000000 0.000000 -10.085492 29.090426 -23.756440 -6.241036 -14.657934 45.941743 -0.008276 1.467996 -1.790172 -0.756283 5.554098 -15.496057 -5.944513 -2.472053 13.065223 1.230808 -3.889632 4.204361 5.204235 -1.929621 -2.384932 -9.301063 -5.385364 3.761992 13.316885 -8.299998 9.820461 5.425933 -4.052000 3.206729 0.000000 0.000000 0.000000 6.832954 -22.724081 -63.840865 150.822485 -40.177866 109.124932 -12.487843 -50.965294 -20.681995 0.000000 0.000000 0.000000 -7.125000 0.000000 0.000000 -38.139050 46.809645 1.989713 0.000000 0.000000 0.000000 -23.450901 -13.983465 9.624834 -153.403705 -37.791430 -110.749318 -18.639805 1.209811 -7.967974 0.000000 0.000000 0.000000 7.125000 0.000000 0.000000 5.948944 21.594453 3.359744
-2.562848 17.766531 3.296709 -171.758703 137.484634 -176.930770 0.000000 0.000000 0.000000 -10.775687 -0.297353 -3.911528 6.717621 15.089447 47.798141 0.159742 -1.365950 -7.193223 0.804615 -5.724685 -15.987829 0.000000 0.000000 0.000000 -10.373812 29.349506 -24.742589 -6.312194 -14.724202 46.222182 -0.059767 0.764955 -4.411315 -0.809096 5.740052 -16.032063 -7.393453 -2.297903 12.899948 0.780957 -3.845836 4.293404 5.525946 -1.925128 -2.132904 -10.206850 -4.849972 1.253001 11.961105 -7.326232 9.972482 5.115553 -3.570467 3.548462 0.000000 0.000000 0.000000 5.183824 -20.874633 -62.866018 150.549081 -40.418054 108.948163 -11.988453 -48.917769 -20.995255 0.000000 0.000000 0.000000 -7.125000 0.000000 0.000000 -37.922359 47.135978 2.326531 0.000000 0.000000 0.000000 -23.830082 -14.147114 15.223464 -151.146362 -39.890270 -109.333290 -20.006670 1.688526 -10.134097 0.000000 0.000000 0.000000 7.125000 0.000000 0.000000 4.973248 19.231371 3.069114
-2.471765 17.394474 3.428878 -171.055447 138.765898 -177.408479 0.000000 0.000000 0.000000 -11.672674 -4.378688 1.096540 6.274347 14.689065 46.073072 0.269268 -5.937332 -9.512409 2.743795 -10.267536 -29.848224 0.000000 0.000000 0.000000 -9.289964 32.070181 -23.002854 -6.568687 -14.957625 47.223328 -0.170028 0.900575 -7.526324 -1.367099 7.395052 -20.893664 -7.961497 -2.299788 12.874832 0.324905 -3.947540 4.092172 5.382532 -1.963149 -2.308906 -9.276334 -3.988809 -0.656544 10.384104 -5.900165 9.805453 4.487819 -2.842138 3.587773 0.000000 0.000000 0.000000 4.928102 -16.084693 -62.056222 150.772925 -40.221633 109.092940 -12.112276 -47.012825 -20.950392 0.000000 0.000000 0.000000 -7.125000 0.000000 0.000000 -37.996124 47.081652 2.273961 0.000000 0.000000 0.000000 -20.117627 -8.917514 19.821070 -152.056885 -39.063882 -109.912158 -15.519020 0.297049 -8.840419 0.000000 0.000000 0.000000 7.125000 0.000000 0.000000 8.186140 20.850980 4.784392
-2.444637 17.062407 3.707050 -170.407805 136.722180 -176.704259 0.000000 0.000000 0.000000 -10.239095 -5.575603 4.519090 5.292715 13.705950 42.072292 0.230156 -12.286603 -11.454989 3.354235 -11.247524 -33.119309 0.000000 0.000000 0.000000 -7.995572 32.090412 -20.447837 -6.965325 -15.302637 48.743213 -0.802005 -0.142418 -16.979031 -2.015726 8.898628 -25.478760 -9.433495 -3.126584 11.585442 0.203224 -5.131306 3.629077 6.135686 -2.572965 -1.789635 -9.066625 -3.595917 -2.346877 10.236020 -5.281238 10.277985 4.407137 -2.488248 3.941093 0.000000 0.000000 0.000000 4.657391 -12.470965 -60.260224 149.965783 -40.922624 108.567990 -13.611587 -47.755217 -21.163606 0.000000 0.000000 0.000000 -7.125000 0.000000 0.000000 -39.345297 47.042502 2.339512 0.000000 0.000000 0.000000 -14.923955 -1.722336 22.677889 -150.405705 -40.543097 -108.854981 -19.123742 -0.984934 -15.259836 0.000000 0.000000 0.000000 7.125000 0.000000 0.000000 5.718064 13.931565 4.195180
-2.504031 17.048884 4.055527 -173.107117 130.924583 -177.525467 0.000000 0.000000 0.000000 -3.924362 -4.573671 4.542326 4.227490 12.456958 37.368474 -0.490482 -17.605799 -7.032459 1.563604 -7.890154 -22.381352 0.000000 0.000000 0.000000 -4.142889 28.074931 -18.667131 -6.997276 -15.329616 48.864024 -1.063827 0.050011 -19.488758 -1.877356 8.605867 -24.569982 -8.657204 -4.061026 11.458609 0.502592 -6.312063 2.812007 6.167989 -3.104516 -2.435614 -8.955401 -4.097629 -2.219358 12.306525 -6.156857 9.912184 4.995599 -2.831167 3.951529 0.000000 0.000000 0.000000 4.116838 -11.388037 -60.080632 148.291259 -42.313748 107.455738 -13.408583 -47.754774 -21.484607 0.000000 0.000000 0.000000 -7.125000 0.000000 0.000000 -39.382755 47.331171 2.669022 0.000000 0.000000 0.000000 -7.867149 9.104215 20.805736 -149.911579 -40.969037 -108.532490 -20.242253 1.298742 -11.653873 0.000000 0.000000 0.000000 7.125000 0.000000 0.000000 4.836455 17.608641 3.158357
-2.603670 17.408996 4.332439 -174.052471 120.566518 -177.278783 0.000000 0.000000 0.000000 0.358813 -8.304272 1.852682 3.286459 11.144873 32.770222 -0.893678 -16.632717 3.750580 1.164891 -6.846038 -19.262222 0.000000 0.000000 0.000000 -2.170270 20.632320 -17.018743 -6.999737 -15.331665 48.873273 -0.649039 0.104004 -15.187437 -1.953791 8.769052 -25.075625 -8.942663 -4.664590 12.044733 0.711821 -7.166387 2.964511 6.676147 -3.530816 -2.386381 -9.303802 -5.826352 -1.233171 16.095583 -8.786812 8.736410 6.126584 -4.037753 3.905820 0.000000 0.000000 0.000000 1.584680 -14.021903 -63.043893 147.433280 -42.994377 106.874309 -12.859167 -45.846076 -21.658907 0.000000 0.000000 0.000000 -7.125000 0.000000 0.000000 -39.046035 47.551430 2.883619 0.000000 0.000000 0.000000 -3.322235 19.049178 12.669985 -151.776246 -39.321263 -109.734776 -15.038685 -2.577216 -12.713548 0.000000 0.000000 0.000000 7.125000 0.000000 0.000000 8.467013 16.920471 5.699445
-2.718347 17.887430 4.554189 -177.315858 109.586831 -178.838761 0.000000 0.000000 0.000000 5.511899 -14.533928 -3.916554 2.763490 10.301988 29.960234 -0.071664 -11.511041 15.329258 1.059910 -6.543412 -18.370346 0.000000 0.000000 0.000000 -0.465445 17.602380 -13.468190 -6.157854 -14.579510 45.611834 -0.163730 1.401654 -7.279107 -1.495235 7.724254 -21.879696 -8.137411 -4.576250 12.933710 0.933801 -6.970903 3.322651 6.519580 -3.423284 -2.595223 -10.361785 -8.066387 0.040830 22.597911 -12.207091 7.044073 8.242424 -5.626930 4.140228 0.000000 0.000000 0.000000 -0.834641 -17.759681 -67.355083 147.187841 -43.185164 106.706614 -12.657949 -45.515081 -21.494248 0.000000 0.000000 0.000000 -7.125000 0.000000 0.000000 -38.778264 47.446923 2.741813 0.000000 0.000000 0.000000 -10.810573 23.400933 3.141154 -154.882311 -36.323825 -111.640384 -11.554677 -3.673115 -12.830619 0.000000 0.000000 0.000000 7.125000 0.000000 0.000000 10.866559 17.036223 7.339581
